<svg width="50" height="50" viewBox="0 0 50 50" fill="none" xmlns="http://www.w3.org/2000/svg">
<circle cx="24.5" cy="28.5" r="11.5" fill="#F3FF99"/>
<path d="M19.261 4.47583C20.3116 4.58232 21.1319 5.46942 21.1321 6.5481L21.1213 6.76099C21.0323 7.63882 20.3973 8.35354 19.5618 8.56567C19.5645 8.58745 19.5686 8.60954 19.5686 8.63208V10.7834C20.4669 11.0147 21.131 11.8276 21.1311 12.7981V29.4651C21.131 30.3616 20.5577 31.158 19.7073 31.4417C18.8566 31.7252 17.9191 31.4324 17.3811 30.7151L8.6311 19.0481V29.4651C8.63096 30.4355 7.96678 31.2483 7.0686 31.4797V33.6321C7.06857 33.6544 7.06451 33.676 7.06177 33.6975C7.96402 33.9262 8.63193 34.7418 8.63208 35.7151L8.62134 35.928C8.51478 36.9786 7.62687 37.7991 6.5481 37.7991L6.33521 37.7883C5.35484 37.6885 4.57525 36.9085 4.47583 35.928L4.46509 35.7151C4.46524 34.7427 5.13248 33.928 6.03345 33.6985C6.03063 33.6767 6.02762 33.6546 6.02759 33.6321V31.4797C5.12943 31.2483 4.46524 30.4355 4.46509 29.4651V12.7981L4.47095 12.6311C4.53721 11.804 5.09163 11.0874 5.88892 10.8215C6.73956 10.538 7.67704 10.8308 8.21509 11.5481L16.9651 23.2141V12.7981C16.9652 11.8276 17.6293 11.0147 18.5276 10.7834V8.63208C18.5276 8.60957 18.5307 8.58742 18.5334 8.56567C17.6987 8.35317 17.0648 7.63838 16.9758 6.76099L16.9651 6.5481C16.9653 5.39776 17.8978 4.46526 19.0481 4.46509L19.261 4.47583ZM6.5481 34.6741C5.97322 34.6744 5.50726 35.1402 5.50708 35.7151C5.50717 36.2901 5.97316 36.7567 6.5481 36.7571C7.12334 36.7571 7.59 36.2903 7.59009 35.7151C7.58991 35.1399 7.12328 34.6741 6.5481 34.6741ZM19.0481 5.50708C18.4731 5.50726 18.0073 5.97306 18.0071 6.5481C18.0072 7.12319 18.473 7.58991 19.0481 7.59009C19.6233 7.59008 20.09 7.12329 20.0901 6.5481C20.0899 5.97295 19.6233 5.50709 19.0481 5.50708Z" fill="#164EFF"/>
<path d="M24.0984 23.5948C24.6521 23.2046 25.3618 23.1082 25.9998 23.336L40.5828 28.544L40.7351 28.6055C41.318 28.8669 41.7416 29.3798 41.8982 29.9864H44.0486C44.0708 29.9864 44.0925 29.9895 44.114 29.9922C44.3433 29.0909 45.1589 28.424 46.1316 28.4239L46.3445 28.4346C47.3951 28.5411 48.2154 29.4282 48.2156 30.5069L48.2048 30.7198C48.0983 31.7704 47.2103 32.5908 46.1316 32.5908L45.9187 32.5801C45.041 32.4909 44.3259 31.8559 44.114 31.0205C44.0925 31.0233 44.0709 31.0274 44.0486 31.0274H41.8982C41.7281 31.6852 41.2434 32.2318 40.5828 32.4678L31.4919 35.7139L40.5828 38.961C41.4117 39.2571 41.9654 40.0427 41.9656 40.9229C41.9656 41.8033 41.4118 42.5886 40.5828 42.8848L25.9998 48.0928C25.3617 48.3207 24.6522 48.2243 24.0984 47.834C23.6903 47.5463 23.4061 47.1251 23.2839 46.6524H21.1326C21.1101 46.6524 21.0879 46.6483 21.0662 46.6455C20.837 47.5474 20.0216 48.2149 19.0486 48.2149L18.8357 48.2041C17.8552 48.1044 17.0757 47.3243 16.9763 46.3438L16.9656 46.1309C16.966 44.9808 17.8985 44.0482 19.0486 44.0479L19.2615 44.0586C20.1391 44.1476 20.8537 44.7823 21.0662 45.6172C21.0879 45.6145 21.1101 45.6114 21.1326 45.6114H23.2156V25.2979C23.2157 24.6205 23.5447 23.9849 24.0984 23.5948ZM19.0486 45.0899C18.4738 45.0902 18.008 45.5561 18.0076 46.1309C18.0076 46.706 18.4735 47.1726 19.0486 47.1729C19.6239 47.1729 20.0906 46.7062 20.0906 46.1309C20.0901 45.556 19.6236 45.0899 19.0486 45.0899ZM27.3816 43.1739L33.6873 40.9229L27.3816 38.6709V43.1739ZM27.3816 32.7578L33.6873 30.5059L27.3816 28.2539V32.7578ZM46.1316 29.4658C45.5566 29.466 45.0908 29.9318 45.0906 30.5069C45.0907 31.082 45.5565 31.5487 46.1316 31.5489C46.7068 31.5488 47.1735 31.082 47.1736 30.5069C47.1734 29.9317 46.7067 29.4659 46.1316 29.4658Z" fill="#164EFF"/>
</svg>
