<svg width="622" height="665" viewBox="0 0 622 665" fill="none" xmlns="http://www.w3.org/2000/svg">
<circle cx="441.244" cy="277.465" r="7.35" transform="rotate(-72.9733 441.244 277.465)" stroke="#164EFF" stroke-width="3.3"/>
<circle cx="465.268" cy="263.905" r="7.35" transform="rotate(-72.9733 465.268 263.905)" stroke="#164EFF" stroke-width="3.3"/>
<circle cx="476.622" cy="288.299" r="7.35" transform="rotate(-72.9733 476.622 288.299)" stroke="#164EFF" stroke-width="3.3"/>
<circle cx="498.107" cy="300.107" r="7.35" transform="rotate(-72.9733 498.107 300.107)" stroke="#164EFF" stroke-width="3.3"/>
<circle cx="525.525" cy="295.954" r="7.35" transform="rotate(-72.9733 525.525 295.954)" stroke="#164EFF" stroke-width="3.3"/>
<circle cx="557.234" cy="311.94" r="7.35" transform="rotate(-72.9733 557.234 311.94)" stroke="#164EFF" stroke-width="3.3"/>
<circle cx="538.242" cy="350.049" r="7.35" transform="rotate(-72.9733 538.242 350.049)" stroke="#164EFF" stroke-width="3.3"/>
<circle cx="516.447" cy="325.595" r="7.35" transform="rotate(-72.9733 516.447 325.595)" stroke="#164EFF" stroke-width="3.3"/>
<circle cx="479.312" cy="320.498" r="7.35" transform="rotate(-72.9733 479.312 320.498)" stroke="#164EFF" stroke-width="3.3"/>
<circle cx="450.06" cy="327.227" r="7.35" transform="rotate(-72.9733 450.06 327.227)" stroke="#164EFF" stroke-width="3.3"/>
<circle cx="451.207" cy="361.045" r="7.35" transform="rotate(-72.9733 451.207 361.045)" stroke="#164EFF" stroke-width="3.3"/>
<circle cx="443.086" cy="390.98" r="7.35" transform="rotate(-72.9733 443.086 390.98)" stroke="#164EFF" stroke-width="3.3"/>
<circle cx="384.682" cy="369.956" r="7.35" transform="rotate(-72.9733 384.682 369.956)" stroke="#164EFF" stroke-width="3.3"/>
<circle cx="392.295" cy="345.096" r="7.35" transform="rotate(-72.9733 392.295 345.096)" stroke="#164EFF" stroke-width="3.3"/>
<circle cx="408.437" cy="319.71" r="7.35" transform="rotate(-72.9733 408.437 319.71)" stroke="#164EFF" stroke-width="3.3"/>
<circle cx="423.991" cy="296.236" r="7.35" transform="rotate(-72.9733 423.991 296.236)" stroke="#164EFF" stroke-width="3.3"/>
<circle cx="382.776" cy="318.126" r="7.35" transform="rotate(-72.9733 382.776 318.126)" stroke="#164EFF" stroke-width="3.3"/>
<circle cx="357.563" cy="321.909" r="7.35" transform="rotate(-72.9733 357.563 321.909)" stroke="#164EFF" stroke-width="3.3"/>
<circle cx="398.683" cy="283.256" r="7.35" transform="rotate(-72.9733 398.683 283.256)" stroke="#164EFF" stroke-width="3.3"/>
<circle cx="461.7" cy="234.575" r="7.35" transform="rotate(-72.9733 461.7 234.575)" stroke="#164EFF" stroke-width="3.3"/>
<circle cx="452.473" cy="206.648" r="7.35" transform="rotate(-72.9733 452.473 206.648)" stroke="#164EFF" stroke-width="3.3"/>
<circle cx="456.046" cy="184.734" r="7.35" transform="rotate(-72.9733 456.046 184.734)" stroke="#164EFF" stroke-width="3.3"/>
<circle cx="484.671" cy="203.959" r="7.35" transform="rotate(-72.9733 484.671 203.959)" stroke="#164EFF" stroke-width="3.3"/>
<circle cx="510.566" cy="215.026" r="7.35" transform="rotate(-72.9733 510.566 215.026)" stroke="#164EFF" stroke-width="3.3"/>
<circle cx="529.121" cy="236.397" r="7.35" transform="rotate(-72.9733 529.121 236.397)" stroke="#164EFF" stroke-width="3.3"/>
<circle cx="536.579" cy="205.213" r="7.35" transform="rotate(-72.9733 536.579 205.213)" stroke="#164EFF" stroke-width="3.3"/>
<circle cx="564.953" cy="201.353" r="7.35" transform="rotate(-72.9733 564.953 201.353)" stroke="#164EFF" stroke-width="3.3"/>
<circle cx="476.753" cy="164.93" r="7.35" transform="rotate(-72.9733 476.753 164.93)" stroke="#164EFF" stroke-width="3.3"/>
<circle cx="497.752" cy="144.169" r="7.35" transform="rotate(-72.9733 497.752 144.169)" stroke="#164EFF" stroke-width="3.3"/>
<circle cx="511.688" cy="119.153" r="7.35" transform="rotate(-72.9733 511.688 119.153)" stroke="#164EFF" stroke-width="3.3"/>
<circle cx="469.068" cy="135.384" r="7.35" transform="rotate(-72.9733 469.068 135.384)" stroke="#164EFF" stroke-width="3.3"/>
<circle cx="423.865" cy="201.025" r="7.35" transform="rotate(-72.9733 423.865 201.025)" stroke="#164EFF" stroke-width="3.3"/>
<circle cx="382.84" cy="256.441" r="7.35" transform="rotate(-72.9733 382.84 256.441)" stroke="#164EFF" stroke-width="3.3"/>
<circle cx="372.735" cy="231.384" r="7.35" transform="rotate(-72.9733 372.735 231.384)" stroke="#164EFF" stroke-width="3.3"/>
<circle cx="389.694" cy="213.569" r="7.35" transform="rotate(-72.9733 389.694 213.569)" stroke="#164EFF" stroke-width="3.3"/>
<circle cx="400.176" cy="189.587" r="7.35" transform="rotate(-72.9733 400.176 189.587)" stroke="#164EFF" stroke-width="3.3"/>
<circle cx="416.473" cy="170.524" r="7.35" transform="rotate(-72.9733 416.473 170.524)" stroke="#164EFF" stroke-width="3.3"/>
<circle cx="399.751" cy="146.578" r="7.35" transform="rotate(-72.9733 399.751 146.578)" stroke="#164EFF" stroke-width="3.3"/>
<circle cx="405.082" cy="118.927" r="7.35" transform="rotate(-72.9733 405.082 118.927)" stroke="#164EFF" stroke-width="3.3"/>
<circle cx="360.131" cy="207.653" r="7.35" transform="rotate(-72.9733 360.131 207.653)" stroke="#164EFF" stroke-width="3.3"/>
<circle cx="331.093" cy="210.265" r="7.35" transform="rotate(-72.9733 331.093 210.265)" stroke="#164EFF" stroke-width="3.3"/>
<circle cx="320.694" cy="186.164" r="7.35" transform="rotate(-72.9733 320.694 186.164)" stroke="#164EFF" stroke-width="3.3"/>
<circle cx="368.826" cy="278.296" r="7.35" transform="rotate(-72.9733 368.826 278.296)" stroke="#164EFF" stroke-width="3.3"/>
<circle cx="341.916" cy="277.376" r="7.35" transform="rotate(-72.9733 341.916 277.376)" stroke="#164EFF" stroke-width="3.3"/>
<circle cx="277.83" cy="295.4" r="7.35" transform="rotate(-72.9733 277.83 295.4)" stroke="#164EFF" stroke-width="3.3"/>
<circle cx="206.912" cy="318.654" r="7.35" transform="rotate(-72.9733 206.912 318.654)" stroke="#164EFF" stroke-width="3.3"/>
<circle cx="180.021" cy="331.335" r="7.35" transform="rotate(-72.9733 180.021 331.335)" stroke="#164EFF" stroke-width="3.3"/>
<circle cx="161.597" cy="353.931" r="7.35" transform="rotate(-72.9733 161.597 353.931)" stroke="#164EFF" stroke-width="3.3"/>
<circle cx="132.942" cy="423.594" r="7.35" transform="rotate(-72.9733 132.942 423.594)" stroke="#164EFF" stroke-width="3.3"/>
<circle cx="132.1" cy="453.665" r="7.35" transform="rotate(-72.9733 132.1 453.665)" stroke="#164EFF" stroke-width="3.3"/>
<circle cx="136.701" cy="486.45" r="7.35" transform="rotate(-72.9733 136.701 486.45)" stroke="#164EFF" stroke-width="3.3"/>
<circle cx="149.676" cy="512.386" r="7.35" transform="rotate(-72.9733 149.676 512.386)" stroke="#164EFF" stroke-width="3.3"/>
<circle cx="176" cy="515.218" r="7.35" transform="rotate(-72.9733 176 515.218)" stroke="#164EFF" stroke-width="3.3"/>
<circle cx="144.345" cy="540.037" r="7.35" transform="rotate(-72.9733 144.345 540.037)" stroke="#164EFF" stroke-width="3.3"/>
<circle cx="105.531" cy="543.838" r="7.35" transform="rotate(-72.9733 105.531 543.838)" stroke="#164EFF" stroke-width="3.3"/>
<circle cx="121.594" cy="515.29" r="7.35" transform="rotate(-72.9733 121.594 515.29)" stroke="#164EFF" stroke-width="3.3"/>
<circle cx="107.741" cy="492.223" r="7.35" transform="rotate(-72.9733 107.741 492.223)" stroke="#164EFF" stroke-width="3.3"/>
<circle cx="80.4611" cy="489.097" r="7.35" transform="rotate(-72.9733 80.4611 489.097)" stroke="#164EFF" stroke-width="3.3"/>
<circle cx="49.2179" cy="492.08" r="7.35" transform="rotate(-72.9733 49.2179 492.08)" stroke="#164EFF" stroke-width="3.3"/>
<circle cx="104.174" cy="462.892" r="7.35" transform="rotate(-72.9733 104.174 462.892)" stroke="#164EFF" stroke-width="3.3"/>
<circle cx="59.3297" cy="465.893" r="7.35" transform="rotate(-72.9733 59.3297 465.893)" stroke="#164EFF" stroke-width="3.3"/>
<circle cx="33.6505" cy="450.708" r="7.35" transform="rotate(-72.9733 33.6505 450.708)" stroke="#164EFF" stroke-width="3.3"/>
<circle cx="420.465" cy="242.864" r="12.75" transform="rotate(-72.9733 420.465 242.864)" stroke="#164EFF" stroke-width="4.5"/>
<circle cx="309.503" cy="284.183" r="12.75" transform="rotate(-72.9733 309.503 284.183)" stroke="#164EFF" stroke-width="4.5"/>
<circle cx="240.049" cy="302.656" r="12.75" transform="rotate(-72.9733 240.049 302.656)" stroke="#164EFF" stroke-width="4.5"/>
<circle cx="146.937" cy="388.138" r="12.75" transform="rotate(-72.9733 146.937 388.138)" stroke="#164EFF" stroke-width="4.5"/>
</svg>
