<svg width="547" height="482" viewBox="0 0 547 482" fill="none" xmlns="http://www.w3.org/2000/svg">
<circle cx="9" cy="9" r="7.35" transform="matrix(1 0 0 -1 355 141)" stroke="#164EFF" stroke-width="3.3"/>
<circle cx="9" cy="9" r="7.35" transform="matrix(1 0 0 -1 375 122)" stroke="#164EFF" stroke-width="3.3"/>
<circle cx="9" cy="9" r="7.35" transform="matrix(1 0 0 -1 355 104)" stroke="#164EFF" stroke-width="3.3"/>
<circle cx="9" cy="9" r="7.35" transform="matrix(1 0 0 -1 350 80)" stroke="#164EFF" stroke-width="3.3"/>
<circle cx="9" cy="9" r="7.35" transform="matrix(1 0 0 -1 362 55)" stroke="#164EFF" stroke-width="3.3"/>
<circle cx="9" cy="9" r="7.35" transform="matrix(1 0 0 -1 356 20)" stroke="#164EFF" stroke-width="3.3"/>
<circle cx="9" cy="9" r="7.35" transform="matrix(1 0 0 -1 314 27)" stroke="#164EFF" stroke-width="3.3"/>
<circle cx="9" cy="9" r="7.35" transform="matrix(1 0 0 -1 331 55)" stroke="#164EFF" stroke-width="3.3"/>
<circle cx="9" cy="9" r="7.35" transform="matrix(1 0 0 -1 325 92)" stroke="#164EFF" stroke-width="3.3"/>
<circle cx="9" cy="9" r="7.35" transform="matrix(1 0 0 -1 310 118)" stroke="#164EFF" stroke-width="3.3"/>
<circle cx="9" cy="9" r="7.35" transform="matrix(1 0 0 -1 278 107)" stroke="#164EFF" stroke-width="3.3"/>
<circle cx="9" cy="9" r="7.35" transform="matrix(1 0 0 -1 247 106)" stroke="#164EFF" stroke-width="3.3"/>
<circle cx="9" cy="9" r="7.35" transform="matrix(1 0 0 -1 250 168)" stroke="#164EFF" stroke-width="3.3"/>
<circle cx="9" cy="9" r="7.35" transform="matrix(1 0 0 -1 276 168)" stroke="#164EFF" stroke-width="3.3"/>
<circle cx="9" cy="9" r="7.35" transform="matrix(1 0 0 -1 305 160)" stroke="#164EFF" stroke-width="3.3"/>
<circle cx="9" cy="9" r="7.35" transform="matrix(1 0 0 -1 332 152)" stroke="#164EFF" stroke-width="3.3"/>
<circle cx="9" cy="9" r="7.35" transform="matrix(1 0 0 -1 299 185)" stroke="#164EFF" stroke-width="3.3"/>
<circle cx="9" cy="9" r="7.35" transform="matrix(1 0 0 -1 288 208)" stroke="#164EFF" stroke-width="3.3"/>
<circle cx="9" cy="9" r="7.35" transform="matrix(1 0 0 -1 337 180)" stroke="#164EFF" stroke-width="3.3"/>
<circle cx="9" cy="9" r="7.35" transform="matrix(1 0 0 -1 402 134)" stroke="#164EFF" stroke-width="3.3"/>
<circle cx="9" cy="9" r="7.35" transform="matrix(1 0 0 -1 426 151)" stroke="#164EFF" stroke-width="3.3"/>
<circle cx="9" cy="9" r="7.35" transform="matrix(1 0 0 -1 448 154)" stroke="#164EFF" stroke-width="3.3"/>
<circle cx="9" cy="9" r="7.35" transform="matrix(1 0 0 -1 438 121)" stroke="#164EFF" stroke-width="3.3"/>
<circle cx="9" cy="9" r="7.35" transform="matrix(1 0 0 -1 435 93)" stroke="#164EFF" stroke-width="3.3"/>
<circle cx="9" cy="9" r="7.35" transform="matrix(1 0 0 -1 420 69)" stroke="#164EFF" stroke-width="3.3"/>
<circle cx="9" cy="9" r="7.35" transform="matrix(1 0 0 -1 452 71)" stroke="#164EFF" stroke-width="3.3"/>
<circle cx="9" cy="9" r="7.35" transform="matrix(1 0 0 -1 464 45)" stroke="#164EFF" stroke-width="3.3"/>
<circle cx="9" cy="9" r="7.35" transform="matrix(1 0 0 -1 473 140)" stroke="#164EFF" stroke-width="3.3"/>
<circle cx="9" cy="9" r="7.35" transform="matrix(1 0 0 -1 499 126)" stroke="#164EFF" stroke-width="3.3"/>
<circle cx="9" cy="9" r="7.35" transform="matrix(1 0 0 -1 527 120)" stroke="#164EFF" stroke-width="3.3"/>
<circle cx="9" cy="9" r="7.35" transform="matrix(1 0 0 -1 499 156)" stroke="#164EFF" stroke-width="3.3"/>
<circle cx="9" cy="9" r="7.35" transform="matrix(1 0 0 -1 423 180)" stroke="#164EFF" stroke-width="3.3"/>
<circle cx="9" cy="9" r="7.35" transform="matrix(1 0 0 -1 358 203)" stroke="#164EFF" stroke-width="3.3"/>
<circle cx="9" cy="9" r="7.35" transform="matrix(1 0 0 -1 379 220)" stroke="#164EFF" stroke-width="3.3"/>
<circle cx="9" cy="9" r="7.35" transform="matrix(1 0 0 -1 401 209)" stroke="#164EFF" stroke-width="3.3"/>
<circle cx="9" cy="9" r="7.35" transform="matrix(1 0 0 -1 427 206)" stroke="#164EFF" stroke-width="3.3"/>
<circle cx="9" cy="9" r="7.35" transform="matrix(1 0 0 -1 450 196)" stroke="#164EFF" stroke-width="3.3"/>
<circle cx="9" cy="9" r="7.35" transform="matrix(1 0 0 -1 468 219)" stroke="#164EFF" stroke-width="3.3"/>
<circle cx="9" cy="9" r="7.35" transform="matrix(1 0 0 -1 496 222)" stroke="#164EFF" stroke-width="3.3"/>
<circle cx="9" cy="9" r="7.35" transform="matrix(1 0 0 -1 398 239)" stroke="#164EFF" stroke-width="3.3"/>
<circle cx="9" cy="9" r="7.35" transform="matrix(1 0 0 -1 387 266)" stroke="#164EFF" stroke-width="3.3"/>
<circle cx="9" cy="9" r="7.35" transform="matrix(1 0 0 -1 407 283)" stroke="#164EFF" stroke-width="3.3"/>
<circle cx="9" cy="9" r="7.35" transform="matrix(1 0 0 -1 333 210)" stroke="#164EFF" stroke-width="3.3"/>
<circle cx="9" cy="9" r="7.35" transform="matrix(1 0 0 -1 326 236)" stroke="#164EFF" stroke-width="3.3"/>
<circle cx="9" cy="9" r="7.35" transform="matrix(1 0 0 -1 290 292)" stroke="#164EFF" stroke-width="3.3"/>
<circle cx="9" cy="9" r="7.35" transform="matrix(1 0 0 -1 247 353)" stroke="#164EFF" stroke-width="3.3"/>
<circle cx="9" cy="9" r="7.35" transform="matrix(1 0 0 -1 227 375)" stroke="#164EFF" stroke-width="3.3"/>
<circle cx="9" cy="9" r="7.35" transform="matrix(1 0 0 -1 200 386)" stroke="#164EFF" stroke-width="3.3"/>
<circle cx="9" cy="9" r="7.35" transform="matrix(1 0 0 -1 125 393)" stroke="#164EFF" stroke-width="3.3"/>
<circle cx="9" cy="9" r="7.35" transform="matrix(1 0 0 -1 96 385)" stroke="#164EFF" stroke-width="3.3"/>
<circle cx="9" cy="9" r="7.35" transform="matrix(1 0 0 -1 66 371)" stroke="#164EFF" stroke-width="3.3"/>
<circle cx="9" cy="9" r="7.35" transform="matrix(1 0 0 -1 45 351)" stroke="#164EFF" stroke-width="3.3"/>
<circle cx="9" cy="9" r="7.35" transform="matrix(1 0 0 -1 50 325)" stroke="#164EFF" stroke-width="3.3"/>
<circle cx="9" cy="9" r="7.35" transform="matrix(1 0 0 -1 17 348)" stroke="#164EFF" stroke-width="3.3"/>
<circle cx="9" cy="9" r="7.35" transform="matrix(1 0 0 -1 2 384)" stroke="#164EFF" stroke-width="3.3"/>
<circle cx="9" cy="9" r="7.35" transform="matrix(1 0 0 -1 34 377)" stroke="#164EFF" stroke-width="3.3"/>
<circle cx="9" cy="9" r="7.35" transform="matrix(1 0 0 -1 52 397)" stroke="#164EFF" stroke-width="3.3"/>
<circle cx="9" cy="9" r="7.35" transform="matrix(1 0 0 -1 47 424)" stroke="#164EFF" stroke-width="3.3"/>
<circle cx="9" cy="9" r="7.35" transform="matrix(1 0 0 -1 35 453)" stroke="#164EFF" stroke-width="3.3"/>
<circle cx="9" cy="9" r="7.35" transform="matrix(1 0 0 -1 79 409)" stroke="#164EFF" stroke-width="3.3"/>
<circle cx="9" cy="9" r="7.35" transform="matrix(1 0 0 -1 63 451)" stroke="#164EFF" stroke-width="3.3"/>
<circle cx="9" cy="9" r="7.35" transform="matrix(1 0 0 -1 70 480)" stroke="#164EFF" stroke-width="3.3"/>
<circle cx="15" cy="15" r="12.75" transform="matrix(1 0 0 -1 376 177)" stroke="#164EFF" stroke-width="4.5"/>
<circle cx="15" cy="15" r="12.75" transform="matrix(1 0 0 -1 304 271)" stroke="#164EFF" stroke-width="4.5"/>
<circle cx="15" cy="15" r="12.75" transform="matrix(1 0 0 -1 266 332)" stroke="#164EFF" stroke-width="4.5"/>
<circle cx="15" cy="15" r="12.75" transform="matrix(1 0 0 -1 157 396)" stroke="#164EFF" stroke-width="4.5"/>
</svg>
