<svg width="104" height="104" viewBox="0 0 104 104" fill="none" xmlns="http://www.w3.org/2000/svg">
<path d="M88.0979 18.3205C81.3658 15.1707 74.1675 12.8816 66.6419 11.5781C65.7177 13.2491 64.6379 15.4966 63.8934 17.2845C55.8935 16.0814 47.9671 16.0814 40.1144 17.2845C39.37 15.4966 38.2657 13.2491 37.3332 11.5781C29.7995 12.8816 22.5929 15.1791 15.8608 18.3372C2.28212 38.8564 -1.39885 58.866 0.441639 78.5914C9.44776 85.3169 18.1758 89.4025 26.7565 92.076C28.8751 89.1601 30.7646 86.0605 32.3924 82.7939C29.2923 81.6159 26.323 80.1621 23.5173 78.4745C24.2616 77.9231 24.9897 77.3465 25.6931 76.7533C42.8055 84.7572 61.3986 84.7572 78.3065 76.7533C79.0182 77.3465 79.7461 77.9231 80.4823 78.4745C77.6684 80.1704 74.691 81.6241 71.5908 82.8023C73.2186 86.0605 75.1 89.1686 77.2268 92.0843C85.8157 89.4108 94.5518 85.3253 103.558 78.5914C105.718 55.7246 99.8689 35.8988 88.0979 18.3205ZM34.7238 66.4604C29.5868 66.4604 25.3741 61.6648 25.3741 55.8248C25.3741 49.9849 29.4968 45.1809 34.7238 45.1809C39.9508 45.1809 44.1634 49.9764 44.0735 55.8248C44.0816 61.6648 39.9508 66.4604 34.7238 66.4604ZM69.2759 66.4604C64.1389 66.4604 59.9262 61.6648 59.9262 55.8248C59.9262 49.9849 64.0488 45.1809 69.2759 45.1809C74.5028 45.1809 78.7155 49.9764 78.6256 55.8248C78.6256 61.6648 74.5028 66.4604 69.2759 66.4604Z" fill="#164EFF"/>
</svg>
