<svg xmlns="http://www.w3.org/2000/svg" width="144" height="144" viewBox="0 0 144 144" fill="none" transform="matrix(1, 0, 0, 1, 0, 0)">
<path d="M114.375 72C114.375 63.146 111.602 54.5144 106.444 47.3175C101.287 40.1206 94.0051 34.7199 85.621 31.8738C77.2369 29.0278 68.1719 28.8795 59.6992 31.4497C51.2265 34.0198 43.7716 39.1794 38.3817 46.2037C32.9917 53.2281 29.9374 61.7643 29.6477 70.6135C29.358 79.4628 31.8475 88.1805 36.7665 95.5423C41.6855 102.904 48.7869 108.54 57.0734 111.659C65.3599 114.778 74.4152 115.223 82.9675 112.931" stroke="#f3ff99" stroke-width="9.3" stroke-linecap="round" fill="#f4f3f2"/>
<circle cx="72.0007" cy="71.9997" r="18.8333" stroke="#f3ff99" stroke-width="9.3" fill="#f4f3f2"/>
<path d="M90.8326 57.875V79.0625C90.8326 85.5633 96.1026 90.8333 102.603 90.8333V90.8333C109.104 90.8333 114.374 85.5633 114.374 79.0625V72" stroke="#f3ff99" stroke-width="9.3" stroke-linecap="round" fill="#f4f3f2"/>
</svg>