<?xml version="1.0" encoding="UTF-8"?><svg id="_이어_2" xmlns="http://www.w3.org/2000/svg" viewBox="0 0 595.28 841.89"><defs><style>.cls-1{fill:#221f20;}</style></defs><path class="cls-1" d="M197.53,438.16c-3.57,1.33-5.72,3.98-7.29,7.2-2.09,4.28-2.72,8.89-2.7,13.57,.03,6.54,1.95,12.4,6.63,17.21,1.23,1.26,2.39,1.64,4.19,1.15,6.31-1.72,12.68-3.22,19.01-4.83,4.61-1.17,9.22-2.39,14.19-3.68-.63-1.93-.66-4.17-1.78-5.08-10.64-8.64-21.47-17.06-32.24-25.54Z"/><path class="cls-1" d="M407.75,457.8c-.09-1.07-.16-2.82-.42-4.54-.83-5.7-3.06-10.66-7.76-14.28-1.06-.82-1.85-1.04-2.99,0-1.91,1.73-4.01,3.23-6.02,4.84-8.58,6.84-17.13,13.73-25.77,20.49-1.36,1.07-1.74,2.29-1.27,3.62,.23,.66,1.42,1.16,2.26,1.39,10.49,2.74,21.01,5.38,31.51,8.12,1.48,.38,2.47,.06,3.5-1.04,4.75-5.04,6.78-11.1,6.95-18.59Z"/><path class="cls-1" d="M327.06,379.53c2.02,.06,2.75-.87,3.18-2.72,1.89-8.06,3.83-16.11,6.08-24.08,.9-3.18,.38-5.86-1.68-8.03-1.83-1.94-4.05-3.76-6.44-4.9-6.01-2.86-12.22-2.32-18.34-.08-3.5,1.28-6.85,2.82-9.62,5.65,9.04,11.51,17.96,22.87,26.83,34.15Z"/><path class="cls-1" d="M331.51,379.49c1.6,1.13,2.7,2.39,4.92,1.68,10.4-3.32,20.86-6.48,31.34-9.53,2.48-.72,2.84-1.9,2.27-4.17-1.86-7.39-11.58-16.51-19.32-17.66-3.18-.47-6.45-.37-9.67-.54-1.68-.09-2.45,.67-2.85,2.36-2.15,9.26-4.42,18.5-6.69,27.86Z"/><path class="cls-1" d="M269.99,377.14c7.99-10.38,15.89-20.65,23.96-31.13-2.08-1.63-3.81-3.18-5.74-4.45-9.72-6.4-22.29-4.16-28.68,5.16-.69,1.01-1.04,2.68-.77,3.87,1.57,6.94,3.45,13.82,5.05,20.76,.6,2.61,1.14,4.92,4.48,4.96,.52,0,1.03,.49,1.7,.83Z"/><path class="cls-1" d="M262.61,375.13c-.04-.18-.07-.42-.13-.66-1.93-7.61-3.82-15.24-5.86-22.82-.2-.76-1.29-1.76-2.03-1.82-2.79-.21-5.65-.41-8.4-.01-9.38,1.35-17.35,7.88-20.48,18.33-.31,1.04-.25,1.75,1.18,2.14,10.19,2.84,20.34,5.81,30.51,8.72,1.38,.4,5.25-2.47,5.22-3.88Z"/><path class="cls-1" d="M232.65,519.04c0-5.48,0-10.97,0-16.45,0-2.66-2.48-4.11-4.8-2.77-4.67,2.69-9.31,5.43-13.97,8.15-4.68,2.73-5.38,4.24-4.52,9.6,.12,.73,.23,1.47,.31,2.21,1.1,9.66,11.04,18.37,20.63,18.2,1.86-.03,2.42-.64,2.38-2.47-.11-5.48-.04-10.97-.04-16.45Z"/><path class="cls-1" d="M301.34,407.81c10.44,7.55,20.64,14.93,30.68,22.19,3-.9,1.96-3.08,1.78-4.83-.71-7.09-1.53-14.17-2.33-21.26-.49-4.34-1.01-8.67-1.48-12.61-1.95-.76-3.46-1.35-5.12-1.99-7.44,5.88-14.99,11.84-22.55,17.81-.26,.21-.54,.38-.99,.69Z"/><path class="cls-1" d="M301.18,540.28c.49,.91,.76,1.5,1.12,2.05,5.16,7.83,22.37,14.89,31.61,13.04,1.38-.28,1.62-1.04,1.6-2.27-.06-4.15-.02-8.3-.02-12.45,0-4.54,0-9.08,0-13.03-3.07-3.29-5.62-1.71-8.37-.29-8.52,4.37-17.13,8.57-25.94,12.96Z"/><path class="cls-1" d="M293.3,407.47l-22.18-17.8c-6.23-.21-6.09,3.93-6.47,7.71-.11,1.07-.2,2.15-.33,3.22-1.06,8.65-2.17,17.29-3.13,25.95-.09,.84,.45,2.09,1.12,2.57,.48,.34,1.82-.06,2.49-.53,3.2-2.23,6.31-4.6,9.44-6.93,6.26-4.65,12.51-9.32,19.05-14.19Z"/><path class="cls-1" d="M260.49,555.69c13.97,.52,24.86-5.19,34.04-15.13-9.68-4.93-19.21-9.8-28.74-14.65-2.73-1.39-5.29,.24-5.29,3.39,0,7.49,0,14.97,0,22.46,0,1.31,0,2.61,0,3.93Z"/><path class="cls-1" d="M362.45,537.44c4.07,0,7.78,0,11.1-2.15,8.73-5.65,11.22-14.14,10.77-23.9-.03-.69-.82-1.57-1.49-1.96-5.36-3.16-10.77-6.22-16.17-9.3-2.36-1.34-4.18-.29-4.2,2.4-.02,2.58,0,5.15,0,7.73,0,8.96,0,17.92,0,27.19Z"/><path class="cls-1" d="M373.6,423.71c-3.55,1.8-4.36,4.85-4.87,8.06-.01,.08-.07,.15-.09,.23-2.4,9.72-4.82,19.44-7.18,29.17-.16,.67,.19,1.46,.3,2.19,.58-.19,1.28-.23,1.73-.58,10.76-8.6,21.49-17.23,32.37-25.96-7.57-4.45-14.99-8.82-22.27-13.1Z"/><path class="cls-1" d="M264.78,439.91l-1.02,.04c-.21,1.23-.79,2.53-.59,3.69,1.75,10.11,3.62,20.21,5.52,30.29,.12,.64,.67,1.26,1.15,1.75,1.2,1.22,2.48,2.36,3.89,3.69,6.45-4.77,13.16-9.74,20.1-14.88-9.85-8.33-19.45-16.46-29.06-24.59Z"/><path class="cls-1" d="M335.74,429.04c1.41-.95,2.66-1.35,3.15-2.19,5.26-9.13,10.41-18.32,15.53-27.53,.35-.63,.42-1.52,.33-2.26-.16-1.25-.54-2.47-.86-3.83-6.14-1.98-12.43-4.01-18.67-6.02-.81,.9-1.39,1.96-2.27,2.41-1.53,.78-1.6,1.92-1.43,3.31,1.37,11.69,2.74,23.38,4.23,36.11Z"/><path class="cls-1" d="M300.39,466.91v43.95c.57-.51,.9-.75,1.18-1.04,6.77-6.97,13.53-13.93,20.29-20.91,1.23-1.27,1.14-5.44-.29-6.5-6.92-5.13-13.89-10.18-21.17-15.49Z"/><path class="cls-1" d="M294.44,466.9c-6.86,4.95-13.32,9.61-19.78,14.29-.39,.28-.79,.65-.97,1.08-.79,1.85-1.5,3.74-2.05,5.12,7.6,7.67,15.23,15.36,22.8,23v-43.48Z"/><path class="cls-1" d="M196.22,480.29c-.41,1.44-.84,2.52-1.01,3.63-.87,5.61,.33,10.92,2.75,15.94,1.91,3.96,5,6.81,9.2,8.3,.79,.28,1.92,.5,2.56,.15,6.05-3.28,12.06-6.66,18.02-10.1,1.59-.92,1.36-3.6-.33-4.34-10.24-4.48-20.5-8.93-31.18-13.58Z"/><path class="cls-1" d="M293.22,512.76c-.55-.65-.84-1.03-1.18-1.38-6.92-7.17-13.81-14.36-20.8-21.46-.67-.68-2.06-1.28-2.83-1.03-.79,.26-1.53,1.54-1.74,2.5-1.82,8.23-3.49,16.5-5.24,24.74-.68,3.2,.51,4.46,3.61,3.69,9.29-2.31,18.57-4.65,28.18-7.06Z"/><path class="cls-1" d="M333.74,517.28c-1.88-8.61-3.8-17.5-5.82-26.36-.16-.7-1.04-1.63-1.69-1.73-.78-.12-1.91,.32-2.49,.91-7.09,7.13-14.12,14.33-21.15,21.52-.41,.42-.73,.95-1.21,1.6,8.72,2.02,17.12,3.87,25.46,5.96,2.74,.69,5.13,1.22,6.9-1.9Z"/><path class="cls-1" d="M199.66,436.69c10.9,8.86,21.48,17.47,32.05,26.07l.67-.31c0-.82,.17-1.69-.03-2.46-2.65-10.33-5.31-20.65-8.08-30.95-.4-1.49-1.36-2.83-2.15-4.4-7.67,4.11-14.88,7.98-22.47,12.05Z"/><path class="cls-1" d="M399.2,481.44c-.65,.12-.99,.13-1.28,.25-10.12,4.3-20.25,8.59-30.33,12.98-.71,.31-1.42,1.34-1.5,2.11-.07,.61,.66,1.6,1.29,1.96,5.1,2.93,10.26,5.75,15.41,8.59,3.82,2.11,6.52,1.89,9.52-1.26,6.58-6.9,8.97-15.04,6.9-24.64Z"/><path class="cls-1" d="M294.18,441.25v-31.03c-10.29,7.11-20.07,13.87-29.66,20.5,.45,3.46,2.3,4.87,5.45,5.06,1.71,.1,3.37,.78,5.07,1.16,6.36,1.44,12.73,2.87,19.14,4.32Z"/><path class="cls-1" d="M263.11,392.04c.06-1.8-3.66-4.65-5.59-3.97-4.6,1.63-9.19,3.29-13.78,4.97-2.96,1.08-3.79,3.45-2.23,6.3,4.95,9.01,9.9,18.03,14.9,27.02,.38,.68,1.16,1.15,1.76,1.71,.31-.8,.79-1.59,.9-2.42,.5-3.7,.87-7.41,1.32-11.12,.89-7.41,1.79-14.82,2.72-22.48Z"/><path class="cls-1" d="M300.35,441.51q2.66-.15,3.39-2.13c1.55-4.2,6.32-5.27,9.78-2.34,.71,.6,2.05,.93,2.97,.75,3.49-.7,6.89-1.85,10.38-2.46,2.41-.42,3.38-1.67,3.69-3.96-9.96-7.26-19.91-14.51-30.21-22.02v32.16Z"/><path class="cls-1" d="M265.85,489.03c-2.49-.11-3.76-2.63-6.5-1.54-6.68,2.67-13.52,4.95-20.3,7.39-2.73,.98-3.04,2.17-1.1,4.19,5.99,6.23,11.97,12.48,18,18.66,.59,.61,1.8,1.32,2.34,1.09,.77-.32,1.49-1.41,1.71-2.3,.94-3.77,1.69-7.59,2.49-11.4,1.1-5.25,2.19-10.51,3.35-16.11Z"/><path class="cls-1" d="M372.1,417.12c.46,.87,1.19,1.61,1.15,2.3-.16,2.48,1.66,3.17,3.29,4.1,6.34,3.62,12.67,7.24,19.02,10.84,.52,.3,1.1,.49,1.94,.85,0-6.36,.26-12.4-.07-18.41-.39-7.08-5.1-11.37-10.68-15.09-4.97,5.22-9.82,10.32-14.65,15.41Z"/><path class="cls-1" d="M198.24,435.1c7.49-4.23,14.64-8.24,21.75-12.31,1.66-.95,2.19-4.94,.94-6.34-3.81-4.28-7.61-8.55-11.44-12.8-2.33-2.58-2.79-2.59-5.26-.05-3.33,3.43-5.09,7.73-6.33,12.23-1.74,6.34-1.91,12.69,.34,19.28Z"/><path class="cls-1" d="M358.96,473.21c.55,4.12,1.15,8.55,1.71,12.98,.34,2.65,.15,5.32,3.72,6.4,1.24,.38,2.05,.72,3.25,.19,7.71-3.44,15.45-6.83,23.18-10.25,1.89-.84,3.77-1.7,6.13-2.77-10.2-2.71-19.81-5.18-29.36-7.86-3.09-.87-5.96-1.76-8.63,1.31Z"/><path class="cls-1" d="M332.55,481.22c.16-.05,.33-.08,.47-.15,5.68-3.09,11.37-6.16,17.03-9.28,1-.55,2.64-1.17,2.72-1.9,.23-2.03,.41-4.46-.48-6.16-3.42-6.53-7.25-12.85-11-19.21-.28-.48-1.18-.98-1.64-.86-.64,.16-1.24,.82-1.65,1.41-.31,.44-.34,1.1-.46,1.66-2.15,10.03-4.28,20.07-6.45,30.1-.37,1.73-.87,3.42,1.46,4.39Z"/><path class="cls-1" d="M234.24,537c7.14-4.3,13.82-8.29,20.46-12.34,1.3-.8,1.43-3.52,.27-4.77-6.03-6.52-12.08-13.03-18.16-19.51-.38-.41-1.33-.89-1.56-.72-.49,.37-.94,1.12-.96,1.74-.1,2.57-.05,5.15-.05,7.72,0,9.12,0,18.24,0,27.88Z"/><path class="cls-1" d="M231.73,423.92c-.06,1.8-.25,3.16-.1,4.47,.18,1.47,.66,2.9,1.03,4.34,2.3,8.8,4.59,17.6,6.94,26.39,.19,.69,.87,1.25,1.33,1.87,.43-.32,1-.54,1.27-.96,3.84-6.09,7.63-12.22,11.49-18.42-3.14-2.96-3.64-6.4-1.78-10.27-6.51-2.39-12.87-4.73-20.19-7.42Z"/><path class="cls-1" d="M198.05,479.35c.67,.42,.97,.67,1.3,.82,9.68,4.28,19.36,8.56,29.05,12.81,1.72,.75,4.52-1.11,4.75-3.02,.6-5.09,1.22-10.19,1.88-15.28,.37-2.84-1.6-4.51-4.5-3.76-1.52,.39-3.05,.75-4.57,1.14-9.16,2.39-18.32,4.78-27.91,7.29Z"/><path class="cls-1" d="M329.89,488.98c2.14,9.76,4.07,18.84,6.16,27.87,.31,1.35,1.48,1.3,2.49,.33,6.05-5.83,12.12-11.63,18.15-17.48,1.23-1.19,.63-3.92-1-4.45-7.71-2.51-15.44-4.99-23.21-7.31-.74-.22-1.82,.71-2.57,1.04Z"/><path class="cls-1" d="M258.75,554.78c0-8.95,.04-17.9-.04-26.84-.02-1.69-2.37-2.74-3.82-1.86-3.39,2.08-6.75,4.21-10.13,6.31-3.49,2.18-6.97,4.35-10.42,6.5,3.16,6.83,16.59,15.56,24.41,15.88Z"/><path class="cls-1" d="M359.84,536.48c.32-12.22,.63-23.92,.96-36.4-1.18,.44-2.26,.54-2.9,1.13-5.79,5.36-11.51,10.8-17.25,16.22-1.33,1.26-1.38,4.85,.15,5.92,6.21,4.38,12.5,8.64,19.04,13.13Z"/><path class="cls-1" d="M386.91,398.89c-.19-2.52-.18-4.64-.53-6.71-1.41-8.4-5.12-15.21-13.51-18.51-.65-.26-2.08,.02-2.38,.52-3.45,5.65-6.76,11.39-10.39,17.58,1.65,.76,3.02,1.58,4.5,2.03,2.29,.69,4.66,1.15,7,1.67,4.9,1.1,9.8,2.19,15.31,3.41Z"/><path class="cls-1" d="M294.39,538.79v-24.36c-10.32,2.42-20.46,4.79-31.44,7.36,1.25,1.24,1.89,2.27,2.81,2.74,6.1,3.16,12.25,6.21,18.39,9.26,3.33,1.66,6.68,3.26,10.24,5Z"/><path class="cls-1" d="M337.06,554.59c9.87-2.36,17.21-7.58,22.75-15.76-6.94-4.79-13.66-9.44-19.93-13.77-2.96,.76-2.86,2.66-2.85,4.65,.06,6.81,.02,13.62,.02,20.42v4.46Z"/><path class="cls-1" d="M300.32,538.48c.31,.03,.41,.07,.47,.04,9.75-4.75,19.49-9.5,29.22-14.29,.42-.21,.97-.92,.88-1.2-.17-.48-.73-1-1.23-1.14-2.31-.64-4.65-1.16-6.99-1.7-7.39-1.7-14.78-3.4-22.35-5.14v23.41Z"/><path class="cls-1" d="M208.99,398.59c.47-.08,.96-.12,1.42-.23,6.35-1.55,12.72-3.03,19.04-4.71,1.68-.45,3.2-1.5,4.96-2.35-3.78-6.43-7.21-12.27-10.63-18.08-11.27,4.98-16.76,14.45-14.8,25.38Z"/><path class="cls-1" d="M238.83,398.83c-1.35,.53-3.22,.69-3.62,1.54-2.4,5.05-4.45,10.26-6.66,15.5,2.67,1.03,3.97,2.85,4.46,5.43,.13,.69,.95,1.51,1.65,1.8,5.42,2.26,10.91,4.34,16.31,6.64,1.62,.69,2.64,.46,3.58-.98-5.15-9.8-10.31-19.62-15.72-29.93Z"/><path class="cls-1" d="M300.31,404.74c1.06-.69,1.83-1.15,2.55-1.66,5.73-4.11,11.39-8.31,17.19-12.31,2.45-1.69,4.83-3.17,3.71-6.71-.05-.15-.14-.29-.3-.61-7.58-2.05-15.28-4.13-23.15-6.25v27.56Z"/><path class="cls-1" d="M339.92,428.41c1.81,2.01,3.47,1.8,5.5,.81,4.99-2.43,10.04-4.74,15.16-6.86,3-1.24,2.42-4.89,4.8-6.44,.08-.05-.13-.61-.24-.91-1.83-4.97-3.64-9.95-5.56-14.89-.22-.56-1.08-1.16-1.69-1.22-.64-.06-1.67,.32-1.96,.83-5.38,9.52-10.68,19.09-16.01,28.68Z"/><path class="cls-1" d="M332.75,486.13c7.86,2.41,15.81,4.89,23.79,7.27,1.26,.38,3.01-1.56,2.8-2.94-.81-5.4-1.63-10.8-2.5-16.19-.4-2.5-2.25-3.38-4.45-2.15-5.56,3.12-11.08,6.32-16.7,9.34-1.88,1.01-3.27,2.08-2.95,4.67Z"/><path class="cls-1" d="M294,404.74v-27.48c-5.84,1.7-11.44,3.43-17.11,4.92-2.71,.72-4.67,1.8-4.52,5.12,7.03,5.66,14.18,11.43,21.63,17.43Z"/><path class="cls-1" d="M237.17,472.95c-.81,5.93-1.68,11.92-2.38,17.92-.09,.78,.59,1.73,1.1,2.47,.21,.3,1.02,.45,1.43,.31,7.65-2.62,15.28-5.29,22.84-7.92-.06-2.74-1.1-4.36-3.52-5.48-4.43-2.05-8.71-4.42-12.99-6.78-2.03-1.12-3.98-1.97-6.48-.51Z"/><path class="cls-1" d="M324.52,382.07l.83-.9c-8.19-10.39-16.39-20.78-24.65-31.25-.3,.43-.46,.55-.46,.68-.02,7.4-.08,14.8,.03,22.2,0,.64,1,1.58,1.74,1.85,3.48,1.28,7.03,2.39,10.57,3.54,3.98,1.3,7.96,2.58,11.94,3.87Z"/><path class="cls-1" d="M294.19,350.31l-.59-.13c-7.12,9.16-14.27,18.31-21.31,27.54-.47,.61-.06,1.89-.06,3.15,6.88-2.01,13.11-3.94,19.4-5.62,2.11-.56,2.72-1.55,2.61-3.61-.17-3.06-.04-6.14-.04-9.21,0-4.04,0-8.07,0-12.11Z"/><path class="cls-1" d="M294.54,462.86c0-6-.07-11.63,.04-17.25,.04-1.71-.65-2.22-2.16-2.57-4.5-1.03-8.96-2.24-13.44-3.34-4.38-1.07-8.77-2.09-13.26-3.16,.27,1.9,21.04,20.72,28.83,26.32Z"/><path class="cls-1" d="M369.14,372.88c-11.86,3.62-22.98,7.02-34.87,10.65,1.16,1.09,1.77,2.12,2.64,2.42,5.63,1.95,11.25,3.99,17.02,5.43,1.66,.41,4.69-.47,5.56-1.78,3.44-5.15,6.26-10.71,9.65-16.72Z"/><path class="cls-1" d="M255.73,442.68l-.73-.03c-3.89,6.54-7.85,13.03-11.57,19.67-.42,.76,.17,2.93,.91,3.35,5.42,3.1,11,5.92,17.17,9.17-2-11.11-3.89-21.64-5.79-32.16Z"/><path class="cls-1" d="M257.85,381.35c-10.18-2.71-20.36-5.41-31.09-8.27,2.85,5.35,5.43,10.21,8.02,15.08,1.1,2.07,4.52,3.39,6.79,2.57,4.58-1.66,9.12-3.45,13.74-5.01,2.11-.71,3.29-1.71,2.55-4.37Z"/><path class="cls-1" d="M363.46,423.29c-6.75,3.39-12.86,6.45-19.16,9.61,1.86,8.22,7.53,14.27,11.48,21.37,2.51-10.12,5.02-20.24,7.68-30.98Z"/><path class="cls-1" d="M384.86,401.27c-7.34-1.93-14.26-3.8-21.22-5.55-1.72-.43-3.03,1.68-2.31,3.69,1.79,4.97,3.63,9.93,5.49,14.87,.66,1.76,3.19,2.29,4.53,.92,4.4-4.5,8.76-9.03,13.5-13.93Z"/><path class="cls-1" d="M231.84,396.3c-7.11,1.47-14.28,2.96-21.79,4.51,4.4,4.85,8.57,9.46,12.75,14.06,1.74,1.92,3.22,1.71,4.26-.66,1.9-4.31,3.67-8.69,5.64-12.97,.85-1.84,1.17-3.4-.87-4.94Z"/><path class="cls-1" d="M330.77,439.83c-3.54,3.01-6.52,5.53-9.49,8.05-4,3.39-4.03,3.4-1.98,8.18,1.9,4.43,3.87,8.84,6.03,13.77,2.05-9.61,3.97-18.6,5.84-27.59,.12-.58-.2-1.26-.4-2.41Z"/><path class="cls-1" d="M311.61,456.31c-3.55,2.82-6.78,5.39-10.19,8.11,6.54,4.78,12.92,9.45,19.3,14.12l.45-.36c-3.13-7.17-6.27-14.34-9.56-21.87Z"/><path class="cls-1" d="M300.28,463.05c3.32-2.66,6.18-5.05,9.16-7.28,1.18-.89,1.24-1.63,.68-2.92-1.34-3.08-2.82-5.87-5.37-8.32-1.67-1.61-2.53-2.43-4.47-1v19.52Z"/><path class="cls-1" d="M197.53,438.16c10.77,8.48,21.59,16.9,32.24,25.54,1.12,.91,1.15,3.15,1.78,5.08-4.97,1.29-9.57,2.5-14.19,3.68-6.34,1.61-12.71,3.11-19.01,4.83-1.79,.49-2.96,.11-4.19-1.15-4.68-4.8-6.6-10.67-6.63-17.21-.02-4.68,.62-9.29,2.7-13.57,1.57-3.22,3.73-5.87,7.29-7.2Z"/><path class="cls-1" d="M407.75,457.8c-.17,7.48-2.2,13.54-6.95,18.59-1.03,1.1-2.03,1.42-3.5,1.04-10.49-2.74-21.01-5.38-31.51-8.12-.85-.22-2.03-.73-2.26-1.39-.47-1.33-.09-2.55,1.27-3.62,8.64-6.76,17.19-13.65,25.77-20.49,2.01-1.61,4.12-3.12,6.02-4.84,1.14-1.03,1.93-.82,2.99,0,4.7,3.63,6.92,8.58,7.76,14.28,.25,1.72,.32,3.47,.42,4.54Z"/><path class="cls-1" d="M327.06,379.53c-8.86-11.28-17.78-22.64-26.83-34.15,2.77-2.83,6.13-4.37,9.62-5.65,6.12-2.24,12.33-2.78,18.34,.08,2.39,1.14,4.61,2.95,6.44,4.9,2.05,2.18,2.58,4.85,1.68,8.03-2.25,7.96-4.19,16.02-6.08,24.08-.43,1.84-1.16,2.78-3.18,2.72Z"/><path class="cls-1" d="M331.51,379.49c2.26-9.37,4.53-18.6,6.69-27.86,.39-1.69,1.17-2.45,2.85-2.36,3.23,.17,6.49,.07,9.67,.54,7.74,1.15,17.46,10.27,19.32,17.66,.57,2.27,.22,3.45-2.27,4.17-10.49,3.05-20.94,6.21-31.34,9.53-2.23,.71-3.32-.55-4.92-1.68Z"/><path class="cls-1" d="M269.99,377.14c-.67-.34-1.18-.83-1.7-.83-3.34-.04-3.88-2.35-4.48-4.96-1.6-6.94-3.48-13.81-5.05-20.76-.27-1.19,.08-2.86,.77-3.87,6.39-9.32,18.96-11.56,28.68-5.16,1.93,1.27,3.66,2.83,5.74,4.45-8.07,10.48-15.97,20.75-23.96,31.13Z"/><path class="cls-1" d="M262.61,375.13c.03,1.4-3.84,4.27-5.22,3.88-10.17-2.91-20.32-5.88-30.51-8.72-1.42-.4-1.49-1.11-1.18-2.14,3.13-10.45,11.1-16.98,20.48-18.33,2.75-.4,5.61-.2,8.4,.01,.74,.06,1.83,1.06,2.03,1.82,2.04,7.58,3.93,15.21,5.86,22.82,.06,.24,.1,.49,.13,.66Z"/><path class="cls-1" d="M232.65,519.04c0,5.48-.07,10.97,.04,16.45,.04,1.84-.52,2.44-2.38,2.47-9.58,.18-19.52-8.53-20.63-18.2-.08-.74-.19-1.47-.31-2.21-.87-5.37-.16-6.87,4.52-9.6,4.65-2.72,9.3-5.45,13.97-8.15,2.32-1.34,4.79,.11,4.8,2.77,.01,5.48,0,10.97,0,16.45Z"/><path class="cls-1" d="M301.34,407.81c.44-.31,.73-.48,.99-.69,7.55-5.96,15.11-11.93,22.55-17.81,1.66,.64,3.17,1.23,5.12,1.99,.46,3.94,.99,8.27,1.48,12.61,.8,7.08,1.61,14.16,2.33,21.26,.18,1.75,1.22,3.93-1.78,4.83-10.04-7.26-20.24-14.64-30.68-22.19Z"/><path class="cls-1" d="M301.18,540.28c8.81-4.39,17.42-8.59,25.94-12.96,2.75-1.41,5.3-3,8.37,.29,0,3.95,0,8.49,0,13.03,0,4.15-.04,8.3,.02,12.45,.02,1.24-.22,2-1.6,2.27-9.24,1.85-26.45-5.22-31.61-13.04-.36-.54-.63-1.14-1.12-2.05Z"/><path class="cls-1" d="M293.3,407.47c-6.55,4.88-12.8,9.54-19.05,14.19-3.13,2.33-6.24,4.7-9.44,6.93-.67,.47-2.01,.87-2.49,.53-.67-.48-1.22-1.73-1.12-2.57,.97-8.66,2.07-17.3,3.13-25.95,.13-1.07,.22-2.15,.33-3.22,.37-3.78,.23-7.92,6.47-7.71l22.18,17.8Z"/><path class="cls-1" d="M260.49,555.69c0-1.32,0-2.63,0-3.93,0-7.49,0-14.97,0-22.46,0-3.15,2.56-4.78,5.29-3.39,9.53,4.86,19.06,9.72,28.74,14.65-9.18,9.94-20.06,15.65-34.04,15.13Z"/><path class="cls-1" d="M362.45,537.44c0-9.27,0-18.23,0-27.19,0-2.58-.01-5.15,0-7.73,.02-2.69,1.85-3.74,4.2-2.4,5.4,3.08,10.81,6.15,16.17,9.3,.67,.4,1.46,1.27,1.49,1.96,.45,9.76-2.04,18.25-10.77,23.9-3.32,2.15-7.03,2.14-11.1,2.15Z"/><path class="cls-1" d="M373.6,423.71c7.28,4.28,14.7,8.65,22.27,13.1-10.88,8.74-21.61,17.37-32.37,25.96-.45,.36-1.15,.4-1.73,.58-.11-.73-.46-1.52-.3-2.19,2.35-9.73,4.77-19.45,7.18-29.17,.02-.08,.07-.15,.09-.23,.51-3.21,1.32-6.26,4.87-8.06Z"/><path class="cls-1" d="M264.78,439.91c9.61,8.13,19.21,16.26,29.06,24.59-6.94,5.14-13.65,10.1-20.1,14.88-1.41-1.33-2.69-2.47-3.89-3.69-.49-.49-1.03-1.11-1.15-1.75-1.9-10.09-3.77-20.18-5.52-30.29-.2-1.16,.37-2.45,.59-3.69l1.02-.04Z"/><path class="cls-1" d="M335.74,429.04c-1.49-12.73-2.86-24.42-4.23-36.11-.16-1.38-.09-2.52,1.43-3.31,.89-.45,1.46-1.52,2.27-2.41,6.24,2.01,12.53,4.04,18.67,6.02,.32,1.36,.7,2.58,.86,3.83,.09,.73,.02,1.63-.33,2.26-5.12,9.21-10.27,18.4-15.53,27.53-.48,.84-1.74,1.24-3.15,2.19Z"/><path class="cls-1" d="M300.39,466.91c7.28,5.31,14.25,10.36,21.17,15.49,1.43,1.06,1.53,5.23,.29,6.5-6.75,6.98-13.52,13.95-20.29,20.91-.28,.29-.6,.53-1.18,1.04v-43.95Z"/><path class="cls-1" d="M294.44,466.9v43.48c-7.57-7.63-15.2-15.33-22.8-23,.55-1.38,1.26-3.27,2.05-5.12,.18-.42,.59-.8,.97-1.08,6.46-4.68,12.92-9.35,19.78-14.29Z"/><path class="cls-1" d="M196.22,480.29c10.68,4.65,20.94,9.1,31.18,13.58,1.69,.74,1.93,3.42,.33,4.34-5.97,3.44-11.97,6.81-18.02,10.1-.65,.35-1.78,.13-2.56-.15-4.19-1.49-7.29-4.35-9.2-8.3-2.42-5.02-3.62-10.33-2.75-15.94,.17-1.12,.6-2.19,1.01-3.63Z"/><path class="cls-1" d="M293.22,512.76c-9.61,2.41-18.89,4.75-28.18,7.06-3.1,.77-4.29-.49-3.61-3.69,1.75-8.25,3.42-16.51,5.24-24.74,.21-.96,.96-2.24,1.74-2.5,.76-.25,2.16,.35,2.83,1.03,6.99,7.1,13.88,14.29,20.8,21.46,.34,.35,.63,.74,1.18,1.38Z"/><path class="cls-1" d="M333.74,517.28c-1.76,3.12-4.16,2.59-6.9,1.9-8.34-2.09-16.75-3.94-25.46-5.96,.49-.65,.8-1.17,1.21-1.6,7.03-7.19,14.05-14.39,21.15-21.52,.58-.59,1.71-1.03,2.49-.91,.65,.1,1.53,1.03,1.69,1.73,2.03,8.86,3.94,17.76,5.82,26.36Z"/><path class="cls-1" d="M199.66,436.69c7.6-4.07,14.81-7.94,22.47-12.05,.78,1.57,1.75,2.91,2.15,4.4,2.77,10.3,5.43,20.62,8.08,30.95,.2,.77,.03,1.64,.03,2.46l-.67,.31c-10.58-8.6-21.16-17.21-32.05-26.07Z"/><path class="cls-1" d="M399.2,481.44c2.08,9.59-.32,17.74-6.9,24.64-3,3.15-5.7,3.37-9.52,1.26-5.15-2.84-10.31-5.67-15.41-8.59-.63-.36-1.36-1.35-1.29-1.96,.09-.77,.8-1.8,1.5-2.11,10.08-4.39,20.21-8.68,30.33-12.98,.29-.12,.63-.13,1.28-.25Z"/><path class="cls-1" d="M294.18,441.25c-6.42-1.45-12.78-2.88-19.14-4.32-1.69-.38-3.36-1.06-5.07-1.16-3.15-.19-5.01-1.59-5.45-5.06,9.59-6.63,19.37-13.38,29.66-20.5v31.03Z"/><path class="cls-1" d="M263.52,392.34c-1.13,7.64-2.23,15.02-3.31,22.4-.54,3.69-1.02,7.4-1.61,11.08-.13,.83-.63,1.6-.96,2.39-.58-.58-1.35-1.06-1.71-1.76-4.76-9.11-9.47-18.26-14.19-27.4-1.49-2.88-.59-5.23,2.4-6.23,4.63-1.56,9.26-3.1,13.9-4.61,1.95-.63,5.59,2.32,5.48,4.12Z"/><path class="cls-1" d="M300.35,441.51v-32.16c10.3,7.5,20.25,14.76,30.21,22.02-.31,2.29-1.29,3.55-3.69,3.96-3.5,.6-6.9,1.76-10.38,2.46-.92,.18-2.26-.14-2.97-.75-3.45-2.93-8.22-1.85-9.78,2.34q-.74,1.98-3.39,2.13Z"/><path class="cls-1" d="M265.85,489.03c-1.17,5.6-2.25,10.86-3.35,16.11-.8,3.81-1.55,7.62-2.49,11.4-.22,.89-.94,1.97-1.71,2.3-.55,.23-1.75-.49-2.34-1.09-6.04-6.18-12.01-12.43-18-18.66-1.94-2.02-1.63-3.21,1.1-4.19,6.78-2.44,13.62-4.72,20.3-7.39,2.74-1.1,4.02,1.43,6.5,1.54Z"/><path class="cls-1" d="M372.1,417.12c4.83-5.08,9.69-10.18,14.65-15.41,5.57,3.73,10.29,8.02,10.68,15.09,.33,6.01,.07,12.05,.07,18.41-.84-.36-1.42-.55-1.94-.85-6.34-3.6-12.68-7.22-19.02-10.84-1.63-.93-3.45-1.63-3.29-4.1,.04-.69-.69-1.43-1.15-2.3Z"/><path class="cls-1" d="M198.24,435.1c-2.25-6.58-2.09-12.94-.34-19.28,1.24-4.5,3-8.8,6.33-12.23,2.47-2.54,2.93-2.53,5.26,.05,3.83,4.25,7.64,8.53,11.44,12.8,1.25,1.41,.72,5.39-.94,6.34-7.11,4.07-14.26,8.08-21.75,12.31Z"/><path class="cls-1" d="M358.96,473.21c2.66-3.07,5.54-2.18,8.63-1.31,9.55,2.68,19.17,5.15,29.36,7.86-2.36,1.07-4.24,1.93-6.13,2.77-7.73,3.42-15.46,6.81-23.18,10.25-1.19,.53-2,.19-3.25-.19-3.57-1.08-3.39-3.75-3.72-6.4-.56-4.43-1.17-8.85-1.71-12.98Z"/><path class="cls-1" d="M332.55,481.22c-2.33-.98-1.84-2.67-1.46-4.39,2.17-10.03,4.3-20.07,6.45-30.1,.12-.57,.15-1.22,.46-1.66,.42-.59,1.02-1.25,1.65-1.41,.46-.12,1.36,.39,1.64,.86,3.75,6.36,7.57,12.68,11,19.21,.89,1.7,.71,4.13,.48,6.16-.08,.73-1.72,1.35-2.72,1.9-5.67,3.12-11.35,6.19-17.03,9.28-.14,.08-.31,.1-.47,.15Z"/><path class="cls-1" d="M234.24,537c0-9.64,0-18.76,0-27.88,0-2.57-.06-5.15,.05-7.72,.02-.62,.47-1.37,.96-1.74,.23-.17,1.18,.31,1.56,.72,6.08,6.48,12.13,12.98,18.16,19.51,1.16,1.25,1.03,3.97-.27,4.77-6.64,4.05-13.32,8.04-20.46,12.34Z"/><path class="cls-1" d="M231.73,423.92c7.32,2.69,13.67,5.03,20.19,7.42-1.86,3.87-1.36,7.31,1.78,10.27-3.86,6.21-7.66,12.33-11.49,18.42-.26,.42-.84,.65-1.27,.96-.45-.62-1.14-1.18-1.33-1.87-2.36-8.78-4.65-17.59-6.94-26.39-.38-1.44-.86-2.87-1.03-4.34-.16-1.31,.04-2.67,.1-4.47Z"/><path class="cls-1" d="M198.05,479.35c9.59-2.5,18.75-4.9,27.91-7.29,1.52-.4,3.05-.75,4.57-1.14,2.9-.75,4.87,.92,4.5,3.76-.66,5.09-1.27,10.18-1.88,15.28-.23,1.91-3.02,3.77-4.75,3.02-9.69-4.25-19.37-8.53-29.05-12.81-.34-.15-.64-.39-1.3-.82Z"/><path class="cls-1" d="M329.89,488.98c.75-.33,1.84-1.26,2.57-1.04,7.77,2.32,15.5,4.8,23.21,7.31,1.63,.53,2.23,3.26,1,4.45-6.02,5.85-12.1,11.65-18.15,17.48-1.01,.97-2.18,1.01-2.49-.33-2.09-9.04-4.02-18.11-6.16-27.87Z"/><path class="cls-1" d="M258.75,554.78c-7.81-.32-21.24-9.05-24.41-15.88,3.45-2.15,6.94-4.32,10.42-6.5,3.37-2.11,6.73-4.23,10.13-6.31,1.45-.89,3.81,.17,3.82,1.86,.08,8.94,.04,17.88,.04,26.84Z"/><path class="cls-1" d="M359.84,536.48c-6.53-4.49-12.83-8.75-19.04-13.13-1.52-1.08-1.48-4.67-.15-5.92,5.74-5.42,11.45-10.86,17.25-16.22,.64-.59,1.72-.69,2.9-1.13-.33,12.48-.64,24.18-.96,36.4Z"/><path class="cls-1" d="M386.91,398.89c-5.5-1.23-10.41-2.31-15.31-3.41-2.34-.53-4.71-.98-7-1.67-1.48-.45-2.86-1.27-4.5-2.03,3.63-6.2,6.93-11.93,10.39-17.58,.3-.5,1.73-.78,2.38-.52,8.39,3.29,12.1,10.11,13.51,18.51,.35,2.07,.34,4.19,.53,6.71Z"/><path class="cls-1" d="M294.39,538.79c-3.57-1.74-6.92-3.34-10.24-5-6.15-3.06-12.3-6.11-18.39-9.26-.92-.48-1.56-1.5-2.81-2.74,10.98-2.57,21.12-4.94,31.44-7.36v24.36Z"/><path class="cls-1" d="M337.06,554.59v-4.46c0-6.81,.04-13.62-.02-20.42-.02-1.99-.11-3.89,2.85-4.65,6.27,4.33,12.99,8.98,19.93,13.77-5.54,8.18-12.88,13.4-22.75,15.76Z"/><path class="cls-1" d="M300.32,538.48v-23.41c7.56,1.74,14.96,3.43,22.35,5.14,2.34,.54,4.68,1.06,6.99,1.7,.5,.14,1.07,.66,1.23,1.14,.1,.27-.46,.99-.88,1.2-9.73,4.79-19.47,9.54-29.22,14.29-.06,.03-.16-.01-.47-.04Z"/><path class="cls-1" d="M208.99,398.59c-1.96-10.93,3.53-20.4,14.8-25.38,3.42,5.81,6.85,11.65,10.63,18.08-1.76,.85-3.28,1.9-4.96,2.35-6.32,1.68-12.69,3.16-19.04,4.71-.47,.11-.95,.16-1.42,.23Z"/><path class="cls-1" d="M238.83,398.83c5.41,10.31,10.57,20.13,15.72,29.93-.94,1.43-1.96,1.66-3.58,.98-5.4-2.3-10.89-4.37-16.31-6.64-.7-.29-1.52-1.11-1.65-1.8-.49-2.59-1.8-4.4-4.46-5.43,2.21-5.24,4.26-10.45,6.66-15.5,.4-.85,2.27-1,3.62-1.54Z"/><path class="cls-1" d="M300.31,404.74v-27.56c7.87,2.12,15.57,4.2,23.15,6.25,.16,.32,.25,.46,.3,.61,1.12,3.55-1.25,5.02-3.71,6.71-5.8,4-11.46,8.2-17.19,12.31-.72,.52-1.49,.97-2.55,1.66Z"/><path class="cls-1" d="M339.92,428.41c5.33-9.59,10.63-19.16,16.01-28.68,.29-.51,1.32-.89,1.96-.83,.61,.06,1.47,.65,1.69,1.22,1.92,4.94,3.73,9.92,5.56,14.89,.11,.31,.33,.86,.24,.91-2.38,1.56-1.8,5.2-4.8,6.44-5.12,2.12-10.18,4.43-15.16,6.86-2.03,.99-3.69,1.2-5.5-.81Z"/><path class="cls-1" d="M332.75,486.13c-.32-2.58,1.06-3.65,2.95-4.67,5.61-3.02,11.13-6.22,16.7-9.34,2.19-1.23,4.04-.36,4.45,2.15,.87,5.39,1.68,10.79,2.5,16.19,.21,1.38-1.54,3.32-2.8,2.94-7.98-2.38-15.93-4.86-23.79-7.27Z"/><path class="cls-1" d="M294,404.74c-7.45-6-14.6-11.77-21.63-17.43-.15-3.33,1.81-4.41,4.52-5.12,5.67-1.5,11.27-3.23,17.11-4.92v27.48Z"/><path class="cls-1" d="M237.17,472.95c2.5-1.46,4.45-.61,6.48,.51,4.28,2.36,8.56,4.74,12.99,6.78,2.42,1.12,3.46,2.74,3.52,5.48-7.56,2.63-15.19,5.31-22.84,7.92-.41,.14-1.21,0-1.43-.31-.52-.73-1.19-1.68-1.1-2.47,.7-6,1.57-11.98,2.38-17.92Z"/><path class="cls-1" d="M324.52,382.07c-3.98-1.29-7.96-2.57-11.94-3.87-3.53-1.15-7.08-2.26-10.57-3.54-.73-.27-1.73-1.21-1.74-1.85-.11-7.4-.06-14.8-.03-22.2,0-.13,.16-.25,.46-.68,8.26,10.47,16.45,20.86,24.65,31.25l-.83,.9Z"/><path class="cls-1" d="M294.19,350.31c0,4.04,0,8.07,0,12.11,0,3.07-.12,6.15,.04,9.21,.11,2.07-.5,3.05-2.61,3.61-6.29,1.68-12.52,3.6-19.4,5.62,0-1.25-.41-2.54,.06-3.15,7.04-9.23,14.19-18.37,21.31-27.54l.59,.13Z"/><path class="cls-1" d="M294.54,462.86c-7.79-5.59-28.56-24.42-28.83-26.32,4.49,1.07,8.88,2.09,13.26,3.16,4.49,1.1,8.94,2.31,13.44,3.34,1.51,.35,2.2,.86,2.16,2.57-.12,5.62-.04,11.25-.04,17.25Z"/><path class="cls-1" d="M369.14,372.88c-3.39,6-6.22,11.56-9.65,16.72-.87,1.31-3.9,2.2-5.56,1.78-5.77-1.44-11.39-3.48-17.02-5.43-.87-.3-1.48-1.33-2.64-2.42,11.89-3.63,23.01-7.03,34.87-10.65Z"/><path class="cls-1" d="M255.73,442.68c1.89,10.52,3.79,21.05,5.79,32.16-6.17-3.25-11.75-6.07-17.17-9.17-.74-.43-1.34-2.6-.91-3.35,3.72-6.63,7.68-13.13,11.57-19.67l.73,.03Z"/><path class="cls-1" d="M257.85,381.35c.74,2.66-.43,3.66-2.55,4.37-4.62,1.55-9.16,3.34-13.74,5.01-2.27,.82-5.69-.5-6.79-2.57-2.58-4.86-5.17-9.73-8.02-15.08,10.73,2.85,20.91,5.56,31.09,8.27Z"/><path class="cls-1" d="M363.46,423.29c-2.66,10.74-5.17,20.86-7.68,30.98-3.95-7.09-9.62-13.15-11.48-21.37,6.3-3.16,12.41-6.22,19.16-9.61Z"/><path class="cls-1" d="M384.86,401.27c-4.74,4.9-9.1,9.44-13.5,13.93-1.34,1.36-3.87,.84-4.53-.92-1.86-4.95-3.7-9.9-5.49-14.87-.72-2.01,.59-4.12,2.31-3.69,6.95,1.75,13.88,3.62,21.22,5.55Z"/><path class="cls-1" d="M231.84,396.3c2.04,1.54,1.72,3.1,.87,4.94-1.97,4.28-3.74,8.66-5.64,12.97-1.05,2.38-2.52,2.58-4.26,.66-4.18-4.6-8.34-9.2-12.75-14.06,7.51-1.56,14.68-3.04,21.79-4.51Z"/><path class="cls-1" d="M330.77,439.83c.21,1.15,.52,1.83,.4,2.41-1.87,9-3.8,17.98-5.84,27.59-2.17-4.94-4.13-9.34-6.03-13.77-2.05-4.78-2.02-4.79,1.98-8.18,2.98-2.52,5.95-5.05,9.49-8.05Z"/><path class="cls-1" d="M311.61,456.31c3.29,7.53,6.43,14.7,9.56,21.87l-.45,.36c-6.38-4.67-12.76-9.34-19.3-14.12,3.41-2.72,6.64-5.29,10.19-8.11Z"/><path class="cls-1" d="M300.28,463.05v-19.52c1.94-1.43,2.8-.61,4.47,1,2.54,2.45,4.03,5.24,5.37,8.32,.56,1.29,.5,2.03-.68,2.92-2.98,2.23-5.84,4.62-9.16,7.28Z"/><path class="cls-1" d="M329.33,437.13c-.39,1-.44,1.77-.86,2.11-3.8,3.11-7.67,6.15-11.53,9.22q-1.71-2.33-1.15-7.99c4.27-1.06,8.59-2.12,13.53-3.34Z"/></svg>